<svg width="374" height="346" viewBox="0 0 374 346" fill="none" xmlns="http://www.w3.org/2000/svg">
<g clip-path="url(#clip0_447_47)">
<path d="M70.4336 51.986C68.9615 50.8778 67.6997 49.6357 67.279 47.6867C89.2848 53.1325 106.74 79.597 100.163 106.807C99.9722 106.596 99.8001 106.367 99.5898 106.195C99.5133 106.138 99.2074 106.253 99.2074 106.291C99.5133 110.361 97.6206 114.049 97.2191 118.023C96.0528 129.602 99.7236 140.876 99.0736 152.398C98.9971 153.869 100.125 154.672 100.852 155.704C102.343 157.844 104.025 159.946 99.7618 160.939C98.4809 161.245 98.3853 162.583 98.0794 163.71C97.6206 165.353 97.1617 167.054 96.3396 168.525C92.8408 174.754 91.904 174.945 86.8758 171.047C81.2549 160.003 78.8268 148.061 76.8767 135.908C72.594 149.322 72.3455 163.022 74.353 177.716C70.816 173.894 71.0263 169.423 68.0629 166.633C68.1203 164.704 68.4262 162.697 66.3422 161.474V161.436C66.5334 158.952 66.4952 156.525 64.5833 154.576C64.5068 152.436 65.4819 150.048 63.1494 148.424C60.3963 133.348 60.3007 118.252 62.9582 103.176C64.3156 95.3992 66.7246 87.8898 69.21 80.4186C73.2632 78.0301 73.7603 81.5078 74.7354 83.8771C76.3796 87.9089 76.3413 92.6285 79.2474 96.3546C83.6829 84.4695 81.9623 73.234 77.259 62.2088C77.1061 61.9413 76.9722 61.6737 76.8193 61.4253C76.6855 60.3553 76.8575 59.1133 75.328 58.8458C75.0795 58.8075 74.9648 58.6547 74.9648 58.4254C75.003 55.1579 72.4029 53.8013 70.4336 51.986Z" fill="#80CFEF"/>
<path d="M271.989 147.334C272.066 146.13 272.142 144.907 272.238 143.704C272.238 143.57 272.238 143.417 272.276 143.302C272.467 142.863 272.582 142.863 272.582 143.302C272.792 143.608 273.022 143.933 273.232 144.258C273.366 144.028 273.538 143.799 273.595 143.551C275.832 133.366 275.412 123.048 275.335 112.73C275.316 111.029 275.106 109.329 275.794 107.647C277.648 103.138 279.388 98.5898 281.166 94.0613C282.772 93.7938 281.74 96.3542 283.461 96.0485C283.594 95.7046 283.766 95.3415 283.9 94.9593C284.589 92.9148 281.969 90.5645 284.053 88.8639C286.615 86.7812 287.743 91.0422 290.057 90.7174C290.42 91.8256 290.783 92.9339 291.146 94.0422C290.305 97.4243 291.873 100.138 293.555 102.832C293.613 103.653 293.67 104.456 293.727 105.278C293.173 108.144 294.702 110.819 294.53 113.666C294.492 114.392 294.951 115.195 295.697 115.252C296.863 115.347 296.767 114.239 297.035 113.456C297.742 111.411 298.01 109.329 297.8 107.169L297.857 107.074C298.947 105.985 298.87 104.838 297.991 103.673C298.01 103.138 298.048 102.603 298.067 102.067C300.266 101.074 299.444 99.1822 299.387 97.5389C299.845 89.5709 299.52 81.6029 298.717 73.6158C300.687 76.3674 301.834 79.3864 303.096 82.3672C305.103 87.106 305.524 92.3607 308.162 96.8511C308.277 97.0995 308.315 97.3669 308.296 97.6536C308.239 98.972 307.302 100.558 309.347 101.265C313.534 123.507 312.005 145.347 304.682 166.767C304.51 167.264 304.09 167.684 303.784 168.124C302.809 167.875 302.962 168.697 302.924 169.155C302.751 170.608 301.853 171.83 300.668 172.041C299.138 172.308 299.367 170.397 298.947 169.518C297.532 166.461 296.041 163.385 295.983 159.869C295.964 158.264 295.085 156.315 293.613 156.181C291.93 156.028 292.102 158.187 291.663 159.468C290.898 161.684 291.204 164.034 290.84 166.251C289.559 173.913 294.072 180.429 294.817 187.671C294.97 187.518 295.142 187.365 295.295 187.193C297.207 193.212 301.891 197.454 305.466 202.556C294.033 202.097 276.884 186.028 273.767 171.238C273.71 169.843 273.882 168.391 273.519 167.092C273.232 166.098 272.811 166.843 272.658 167.397C271.626 166.289 271.989 164.952 271.989 163.671C271.989 158.207 271.989 152.761 271.989 147.334Z" fill="#80CFEF"/>
<path d="M66.2084 318.35C66.2084 310.879 66.2848 303.408 66.1701 295.918C66.1319 293.185 67.0687 292.134 69.8983 292.058C78.7503 291.79 78.7312 291.695 78.712 300.351C78.6738 312.121 78.6738 312.121 90.3363 312.159C99.0162 312.178 99.0162 312.178 99.0162 303.542C99.0162 302.395 99.0162 301.249 99.0162 300.083C98.9971 291.676 100.24 290.72 108.824 292.077C110.946 292.421 111.367 293.625 111.367 295.344C111.367 310.86 111.329 326.395 111.367 341.91C111.367 343.974 110.411 344.719 108.461 344.662C106.3 344.585 104.14 344.547 101.98 344.662C99.7427 344.757 98.9397 343.859 98.9971 341.624C99.1309 336.885 98.9397 332.127 99.0735 327.388C99.15 324.579 98.022 323.586 95.2498 323.681C90.9289 323.853 86.6081 323.815 82.3064 323.7C79.6871 323.624 78.6929 324.732 78.7312 327.255C78.7885 331.86 78.6547 336.465 78.7694 341.05C78.8268 343.592 77.9282 344.566 75.2898 344.7C66.2275 345.12 66.2275 345.216 66.2275 336.006C66.1892 330.14 66.1893 324.235 66.2084 318.35Z" fill="#B7B4BC"/>
<path d="M219.201 246.237C216.945 248.759 213.542 248.358 210.827 248.836C196.832 251.281 182.761 252.313 168.517 249.772C161.94 248.606 155.363 247.708 149.112 245.282L149.207 245.167C153.547 244.938 157.619 246.6 161.653 247.594C167.313 248.988 173.239 248.281 178.746 250.345C179.3 250.555 180.218 250.498 180.619 249.294C177.943 248.167 178.746 246.829 180.084 244.785C182.206 241.594 184.787 238.651 186.164 234.963C189.835 225.18 196.316 216.849 200.656 207.391C201.363 205.843 202.95 204.849 204.594 204.2C205.646 203.779 206.889 203.607 207.042 202.136C218.857 201.849 230.672 202.556 242.469 201.391C242.469 202.938 241.799 203.989 240.155 203.76C235.242 203.091 233.272 206.225 231.552 209.97C230.481 212.301 229.047 214.46 227.69 216.639C225.204 220.651 222.088 224.225 220.1 228.6C217.882 233.53 217.825 239.606 212.605 243.046C211.783 243.581 211.095 244.976 211.802 246.141C212.529 247.345 213.867 247.02 214.938 246.715C216.372 246.313 217.748 245.969 219.201 246.237Z" fill="#8058A4"/>
<path d="M219.201 246.237C217.748 245.969 216.372 246.332 214.976 246.715C213.905 247.02 212.567 247.345 211.84 246.141C211.133 244.976 211.821 243.581 212.643 243.046C217.863 239.606 217.92 233.53 220.138 228.6C222.107 224.224 225.243 220.651 227.728 216.639C229.086 214.441 230.52 212.301 231.59 209.97C233.292 206.225 235.28 203.091 240.194 203.76C241.838 203.989 242.507 202.938 242.507 201.371C245.967 201.333 249.447 201.314 252.908 201.276C253.29 201.658 253.883 202.04 254.074 201.352C254.303 200.512 253.424 200.473 252.831 200.359C248.051 196.766 242.87 193.537 240.786 187.423C245.317 191.34 249.141 196.002 254.189 199.365C259.695 203.015 265.392 206.187 271.931 207.581C272.351 207.677 272.791 207.677 273.212 207.792C279.139 209.282 279.425 210.104 275.124 214.422C261.874 227.683 246.637 237.829 228.627 243.504C227.002 244.02 225.74 245.472 223.866 245.224C222.604 245.32 221.247 244.88 220.176 245.912C219.832 246.027 219.526 246.122 219.201 246.237Z" fill="#8452A1"/>
<path d="M115.689 49.0052C109.188 46.3874 102.994 43.0245 95.9386 41.8589C93.109 41.4003 94.5238 39.6614 95.6136 38.4767C101.751 31.7508 108.748 26.0566 116.262 20.9548C125.802 14.4963 136.146 9.64292 146.948 5.74491C148.554 5.17167 150.313 5.05703 151.995 4.73219C152.664 4.92327 153.352 5.36274 154.003 5.28631C157.597 4.88504 158.209 6.92958 157.731 9.75755C157.387 11.7257 156.928 13.7129 155.322 15.146C153.525 16.732 152.32 18.8338 151.804 20.993C149.854 29.2858 143.353 35.152 140.562 43.0053C139.396 46.2537 136.834 48.26 132.819 47.7059C131.328 47.4957 129.225 46.846 128.422 49.2154C125.821 49.2154 123.221 49.2154 120.621 49.2345C119.015 48.1071 117.371 48.1836 115.689 49.0052Z" fill="#8452A1"/>
<path d="M215.605 3.77691C222.641 3.70048 228.702 7.10167 235.049 9.37551C239.447 10.9424 243.767 12.8914 247.534 15.834L247.515 15.8531C239.638 13.8085 232.812 9.12712 224.935 6.96792C222.068 6.1845 220.557 6.05073 219.047 8.85959C212.126 21.7574 204.956 34.5024 200.138 48.3939C190.082 48.4703 180.025 48.5467 169.988 48.6231C168.516 48.5467 167.044 48.4703 165.572 48.3939C165.725 45.4703 169.51 45.3175 169.988 42.9099C171.365 35.9546 176.374 30.8528 178.993 24.5281C181.574 18.2989 185.245 12.5283 190.235 7.77045C191.286 6.77684 192.586 5.38195 191.898 4.08261C189.986 0.547649 192.414 1.12089 194.422 0.987139C201.687 0.509442 208.512 3.12724 215.605 3.77691Z" fill="#7A61AA"/>
<path d="M215.602 3.77683C208.509 3.12716 201.683 0.509364 194.437 0.987062C192.43 1.12082 190.002 0.54757 191.914 4.08253C192.621 5.40098 191.302 6.77676 190.25 7.77038C185.26 12.5282 181.59 18.2988 179.009 24.528C176.37 30.8527 171.361 35.9737 170.004 42.9098C169.526 45.3174 165.721 45.4703 165.587 48.3938C153.198 48.0116 140.847 49.9606 128.439 49.1581C129.242 46.7887 131.345 47.4384 132.837 47.6486C136.833 48.2027 139.414 46.1964 140.58 42.948C143.371 35.1138 149.891 29.2286 151.822 20.9357C152.319 18.7765 153.542 16.6747 155.34 15.0887C156.965 13.6556 157.424 11.6684 157.749 9.70026C158.226 6.85319 157.615 4.82775 154.02 5.22902C153.37 5.30545 152.682 4.86598 152.013 4.6749C157.921 2.30552 164.211 0.891532 170.424 0.490266C180.978 -0.197618 191.646 -0.140287 202.2 0.52849C206.635 0.834217 211.549 1.0444 215.602 3.77683Z" fill="#8058A4"/>
<path d="M135.615 344.662C128.312 344.662 128.312 344.662 130.548 338.108C135.385 324.025 140.28 309.943 145.06 295.841C145.901 293.357 147.124 292.096 149.954 292.039C159.074 291.867 159.055 291.771 162.094 300.541C166.721 313.936 171.329 327.35 176.032 340.725C177.103 343.783 176.414 345.101 173.069 344.662C172.648 344.604 172.208 344.643 171.769 344.662C164.159 344.7 163.911 344.757 161.903 337.42C160.966 333.999 159.265 332.968 156.091 333.35C155.67 333.407 155.231 333.35 154.791 333.35C145.461 333.35 145.174 333.254 142.306 341.91C140.853 346.362 137.641 343.878 135.615 344.662ZM152.344 311.395C151.426 314.337 150.47 316.993 149.782 319.688C149.055 322.497 151.407 321.809 152.707 321.79C154.007 321.751 156.779 322.688 156.129 320.223C155.365 317.337 155.059 313.993 152.344 311.395Z" fill="#B7B4BC"/>
<path d="M28.97 345.999C13.7897 346.114 2.85379 337.037 0.463944 323.375C-1.90679 309.847 4.95684 297.159 17.6517 292.745C26.4655 289.688 35.2028 290.605 43.3474 295.497C45.6034 296.853 46.4829 298.286 44.1695 300.388C43.4239 301.057 42.7164 301.821 42.162 302.643C40.0781 305.739 38.0897 306.35 34.4189 304.21C28.2244 300.618 19.468 303.006 15.4531 308.528C11.0366 314.605 11.744 324.827 16.9252 330.025C22.0873 335.203 30.6525 336.025 36.6367 331.267C39.7722 328.764 41.2825 330.273 43.443 332.184C49.408 337.42 49.408 337.591 42.5253 341.872C37.9941 344.719 32.9467 345.559 28.97 345.999Z" fill="#B7B4BC"/>
<path d="M278.314 318.312C278.314 310.994 278.467 303.656 278.238 296.357C278.123 292.86 279.385 291.981 282.731 292.058C292.366 292.268 302.002 292.268 311.619 292.077C315.271 292.001 316.647 293.281 316.208 296.797C316.093 297.79 316.055 298.822 316.208 299.797C316.666 302.911 315.252 303.79 312.326 303.714C306.285 303.561 300.243 303.809 294.221 303.618C291.162 303.523 290.034 304.669 290.34 307.612C290.474 308.892 290.435 310.191 290.359 311.491C290.244 313.879 291.372 314.835 293.724 314.796C298.618 314.72 303.494 314.873 308.388 314.739C310.854 314.663 311.6 315.58 311.581 317.987C311.447 327.904 312.25 326.051 303.723 326.185C300.568 326.242 297.395 326.337 294.24 326.165C291.162 325.993 290.206 327.35 290.34 330.255C290.512 334.114 290.302 338.012 290.378 341.872C290.416 343.859 289.69 344.566 287.644 344.719C278.295 345.407 278.314 345.484 278.314 336.407C278.295 330.369 278.295 324.331 278.314 318.312Z" fill="#B7B4BC"/>
<path d="M352.19 310.172C355.422 306.331 356.511 301.306 358.92 297.007C359.895 295.287 360.106 292.612 362.266 292.344C365.803 291.905 369.474 291.905 373.011 292.402C374.808 292.65 373.718 294.446 373.145 295.574C369.971 301.822 367.122 308.261 363.528 314.242C359.456 321.006 357.831 328.019 358.194 335.91C358.633 345.522 358.003 345.751 348.501 344.719C346.646 344.509 345.728 343.802 346.072 342.063C349.112 326.127 340.547 313.631 333.817 300.618C329.344 291.943 329.248 292.077 339.075 292.096C342.057 292.096 343.778 292.975 344.964 295.879C346.895 300.637 349.323 305.204 351.56 309.847C351.598 309.905 351.751 309.924 352.19 310.172Z" fill="#B7B4BC"/>
<path d="M68.043 166.614C71.0065 169.423 70.8153 173.894 74.3331 177.696C72.3257 163.021 72.5742 149.302 76.8568 135.888C78.826 148.041 81.2541 159.983 86.8751 171.028C87.0663 172.155 86.9515 173.416 87.4677 174.352C92.2857 183.123 98.4802 190.575 107.638 195.142C107.83 196.155 108.346 196.766 109.474 196.69C110.831 197.072 112.189 197.435 113.546 197.817C113.68 198.6 113.814 199.365 113.948 200.148C110.946 200.282 109.646 201.658 109.053 204.81C107.83 211.154 102.668 214.594 97.333 213.294L97.2948 213.237C96.9889 212.97 96.683 212.721 96.3771 212.454C83.0896 199.556 73.6449 184.269 68.043 166.614Z" fill="#5E85BF"/>
<path d="M205.839 292.115C211.88 292.115 217.922 292.192 223.963 292.077C226.525 292.039 227.577 292.975 227.52 295.593C227.367 305.089 228.533 303.523 220.025 303.618C211.632 303.714 211.632 303.637 211.632 312.159C211.632 321.503 211.498 330.828 211.689 340.152C211.766 343.706 210.657 344.853 207.043 344.738C199.453 344.49 199.453 344.7 199.453 337.248C199.453 327.197 199.377 317.146 199.491 307.096C199.51 304.554 198.822 303.331 196.107 303.599C194.406 303.771 192.666 303.637 190.926 303.637C183.623 303.637 182.246 301.765 183.795 294.408C184.311 291.981 185.974 292.115 187.714 292.115C193.756 292.115 199.797 292.115 205.839 292.115Z" fill="#B7B4BC"/>
<path d="M126.642 235.804C124.099 234.104 120.945 233.416 118.88 230.97C120.142 228.906 121.365 226.823 122.646 224.798C126.317 219.008 128.191 212.301 132.359 206.722C133.946 204.601 135.341 203.779 137.884 203.703C139.911 203.646 142.587 205.174 143.945 202.155C145.952 202.079 147.941 202.002 149.948 201.926C156.028 202.155 162.108 202.308 168.187 201.582C167.939 204.83 164.402 204.811 162.777 207.028C158.513 212.856 157.022 220.021 152.854 225.811C151.535 227.645 150.158 229.499 149.872 231.925C149.661 233.588 148.304 234.6 146.927 235.422C142.339 238.135 142.32 238.441 146.602 242.033C147.004 242.358 147.157 242.989 147.405 243.466C146.277 243.486 145.168 243.505 144.04 243.524L143.906 243.409C139.509 240.543 134.959 238.078 129.644 237.39C129.185 237.065 128.745 236.721 128.306 236.397C127.751 236.205 127.197 235.995 126.642 235.804Z" fill="#756CB1"/>
<path d="M283.231 45.8518C283.479 46.1958 283.746 46.5397 283.994 46.9027C284.53 47.9919 285.084 49.081 285.619 50.1702C284.396 50.1511 283.803 51.0491 282.905 51.6797C279.138 54.3357 279.712 61.0999 273.594 61.3866C271.299 59.9535 269.751 57.393 266.787 56.9917C266.157 56.4376 265.621 55.7497 264.914 55.3293C256.674 50.4759 247.784 47.9728 238.168 48.3358C238.129 47.132 238.415 46.062 239.314 45.2022C243.08 41.629 244.266 36.5271 246.999 32.3807C249.428 28.6929 249.504 23.9159 252.888 20.8013C255.737 21.2217 257.306 24.3363 260.364 24.3172L260.65 24.5847C261.759 27.5464 264.264 28.712 267.055 29.5336C267.284 29.7247 267.533 29.9349 267.762 30.126L267.935 30.2406C268.145 30.489 268.355 30.7375 268.565 30.9859C271.204 34.9221 274.722 37.9793 278.565 40.6927C278.737 40.7309 278.851 40.8455 278.87 41.0366C278.966 41.2468 279.12 41.3996 279.33 41.5143C279.541 41.5716 279.673 41.7054 279.731 41.9156C279.826 42.1067 279.96 42.2595 280.151 42.3742C280.381 42.5079 280.534 42.699 280.629 42.9283L280.916 43.2149C281.184 43.3296 281.375 43.5015 281.509 43.7499L281.739 44.0174C281.911 44.2849 282.083 44.5524 282.256 44.8008C282.542 45.1448 282.886 45.4888 283.231 45.8518Z" fill="#6E76B8"/>
<path d="M266.787 56.9917C269.751 57.393 271.319 59.9535 273.594 61.3866C274.97 64.826 278.986 65.9914 280.439 69.3735C280.573 70.2334 281.07 70.7875 281.93 70.9977C284.932 77.4562 288.967 83.4755 290.057 90.7174C287.724 91.0422 286.615 86.8003 284.053 88.8639C281.969 90.5645 284.589 92.9148 283.9 94.9593C283.766 95.3415 283.594 95.7046 283.461 96.0485C281.759 96.3351 282.791 93.7938 281.166 94.0613C279.388 98.5898 277.648 103.138 275.794 107.647C275.106 109.329 275.316 111.048 275.335 112.73C275.412 123.048 275.832 133.366 273.595 143.551C273.538 143.799 273.347 144.009 273.232 144.258C273.022 143.933 272.792 143.608 272.582 143.302C274.915 129.64 274.283 116.035 271.606 102.468C271.644 101.933 272.619 100.978 271.033 101.15C270 100.023 270.172 98.5704 270 97.2138C269.943 96.717 270.88 95.7233 269.369 95.9717C268.241 95.2838 268.471 94.061 268.146 93.0291C268.184 92.3412 268.49 91.5005 268.203 90.9654C265.45 85.7872 261.301 81.5835 257.86 76.9021C257.076 75.832 255.795 76.1377 254.667 76.0995L254.59 76.0422C254.342 73.9212 255.202 72.5454 257.21 71.7047C258.28 71.2652 260.154 70.7684 259.179 69.0869C257.745 66.6029 259.064 65.4564 260.9 64.3481C262.2 63.5456 263.117 62.38 263.137 60.8896C263.137 58.3483 264.589 57.3739 266.787 56.9917Z" fill="#86B8E2"/>
<path d="M113.549 197.837C112.192 197.454 110.834 197.091 109.477 196.728C109.267 195.735 108.655 195.219 107.641 195.181C98.4639 190.614 92.2694 183.162 87.4706 174.391C86.9544 173.455 87.05 172.175 86.8779 171.066C91.9062 174.964 92.843 174.773 96.3417 168.544C97.1638 167.073 97.6227 165.372 98.0815 163.729C98.3874 162.602 98.483 161.264 99.764 160.958C104.028 159.946 102.346 157.844 100.854 155.723C100.128 154.691 98.9992 153.888 99.0757 152.417C99.7257 140.895 96.055 129.621 97.2212 118.042C97.6227 114.068 99.5155 110.38 99.2096 106.31C99.2096 106.291 99.5154 106.157 99.5919 106.214C99.8022 106.386 99.9743 106.616 100.166 106.826C98.8081 114.603 98.3874 122.437 98.6933 130.328C99.0948 140.742 101.275 150.697 105.921 160.079C105.825 160.92 106.246 161.436 107.011 161.684C107.144 161.895 107.259 162.124 107.374 162.353C107.508 162.984 107.641 163.595 107.775 164.226C107.737 164.952 107.986 165.487 108.75 165.678C108.98 165.869 109.19 166.06 109.419 166.232C109.611 166.71 108.769 167.856 110.261 167.512C110.7 167.589 111.14 167.665 111.58 167.761L111.867 168.067C112.02 168.238 112.192 168.41 112.345 168.582C112.459 168.697 112.574 168.812 112.689 168.945C112.88 169.137 113.052 169.309 113.243 169.5C113.358 169.614 113.473 169.729 113.587 169.844L113.683 170.226L114.065 170.321L114.371 170.589C114.467 171.047 114.562 171.487 114.658 171.945C114.926 172.194 115.193 172.442 115.48 172.691L115.537 172.71C115.92 173.856 116.704 174.449 117.927 174.468C118.577 174.888 119.208 175.289 119.858 175.71C119.992 175.958 120.183 176.111 120.432 176.207L120.7 176.417C120.967 176.608 121.254 176.799 121.522 176.99C122.114 177.315 122.707 177.621 123.281 177.945C124.179 182.436 123.873 184.213 121.311 189.62C121.005 190.251 120.776 190.958 120.661 191.646C119.973 195.62 117.277 197.302 113.549 197.837Z" fill="#86B8E2"/>
<path d="M252.908 201.276C249.447 201.314 245.967 201.333 242.507 201.371C230.711 202.556 218.894 201.83 207.078 202.136C201.591 201.639 196.028 202.938 190.598 201.371C196.563 196.843 198.532 189.849 201.744 183.601C209.239 182.779 216.733 183.448 224.228 183.276C229.046 184.767 234.036 183.295 238.892 184.212L239.064 184.595C238.93 185.951 239.007 187.174 240.746 187.403L240.766 187.442C242.849 193.556 248.031 196.785 252.81 200.378C252.849 200.664 252.888 200.97 252.908 201.276Z" fill="#9577B6"/>
<path d="M257.076 318.235C257.076 325.707 256.962 333.197 257.134 340.668C257.191 343.534 256.503 344.834 253.348 344.719C243.712 344.356 244.745 346.305 244.706 336.407C244.668 323.184 244.84 309.943 244.726 296.72C244.687 293.185 245.796 291.599 249.429 292.096C250.71 292.268 252.029 292.211 253.31 292.096C256.101 291.847 257.153 292.994 257.115 295.822C256.981 303.293 257.076 310.764 257.076 318.235Z" fill="#B7B4BC"/>
<path d="M290.054 90.6981C288.964 83.4562 284.93 77.4372 281.929 70.9787C282.139 69.794 281.546 69.3354 280.437 69.3545C278.984 65.9915 274.969 64.8069 273.593 61.3674C279.711 61.0999 279.156 54.3357 282.904 51.6606C283.802 51.03 284.395 50.132 285.618 50.1511C286.135 51.0301 286.766 51.7562 287.836 51.9472C297.721 64.7113 304.011 79.1951 308.14 94.6916C308.312 95.3413 308.14 96.1056 308.121 96.8126C305.464 92.3222 305.043 87.0676 303.055 82.3288C301.793 79.348 300.646 76.348 298.677 73.5774C299.48 81.5645 299.805 89.5134 299.346 97.5005C297.052 98.475 297.874 100.348 298.027 102.029C298.007 102.564 297.969 103.099 297.931 103.634C297.893 104.761 297.835 105.908 297.797 107.035L297.74 107.131C295.924 107.456 295.082 105.736 293.687 105.201C293.629 104.379 293.572 103.577 293.515 102.755C294.337 99.3731 293.017 96.5833 291.106 93.9655C290.781 92.9146 290.417 91.8064 290.054 90.6981Z" fill="#5E85BF"/>
<path d="M143.965 202.155C142.607 205.174 139.931 203.645 137.904 203.702C135.361 203.779 133.966 204.601 132.379 206.722C128.211 212.301 126.337 219.008 122.666 224.798C121.366 226.842 120.143 228.906 118.9 230.969C110.87 226.097 103.242 220.766 97.334 213.314C102.668 214.594 107.849 211.155 109.054 204.83C109.666 201.696 110.966 200.301 113.948 200.167C115.038 200.225 116.109 200.282 117.198 200.34C117.332 201.467 117.944 202.021 119.11 201.906C125.075 201.945 131.06 201.906 137.025 202.059C139.338 202.117 141.69 200.148 143.965 202.155Z" fill="#6E76B8"/>
<path d="M227.65 135.698C221.666 135.698 217.383 131.437 217.364 125.475C217.345 119.551 221.704 115.08 227.574 115.004C233.29 114.927 238.032 119.647 237.993 125.36C237.936 131.246 233.481 135.698 227.65 135.698Z" fill="#B7B4BC"/>
<path d="M186.16 135.697C180.253 135.659 176.008 131.283 176.027 125.284C176.046 119.456 180.635 114.946 186.447 115.023C192.24 115.099 196.695 119.742 196.599 125.57C196.523 131.417 192.068 135.736 186.16 135.697Z" fill="#B7B4BC"/>
<path d="M155.243 125.284C155.282 131.303 151.056 135.66 145.149 135.698C139.26 135.736 134.767 131.398 134.633 125.551C134.5 119.8 139.088 115.061 144.862 115.004C150.655 114.927 155.205 119.418 155.243 125.284Z" fill="#B7B4BC"/>
<path d="M77.2199 62.1893C81.904 73.2146 83.6438 84.4501 79.2082 96.3352C76.3022 92.6091 76.3404 87.9086 74.6962 83.8577C73.7211 81.4692 73.2432 78.0107 69.1709 80.3992C71.8475 74.342 74.5433 68.2657 77.2199 62.1893Z" fill="#71AAD8"/>
<path d="M295.293 187.174C295.14 187.327 294.968 187.48 294.815 187.652C294.07 180.41 289.538 173.913 290.838 166.232C291.221 163.996 290.896 161.665 291.661 159.448C292.1 158.168 291.909 155.99 293.611 156.162C295.083 156.295 295.962 158.245 295.981 159.85C296.039 163.385 297.53 166.442 298.945 169.499C299.346 170.397 299.136 172.289 300.666 172.021C301.851 171.811 302.75 170.588 302.922 169.136C302.979 168.677 302.807 167.856 303.782 168.104C302.214 175.04 299.289 181.346 295.293 187.174Z" fill="#71AAD8"/>
<path d="M224.23 183.257C216.735 183.429 209.221 182.76 201.746 183.582C188.21 183.238 174.693 182.932 161.157 183.62C159.589 183.524 158.002 183.295 156.434 183.352C145.001 183.811 133.779 183.047 123.282 177.887C122.69 177.563 122.097 177.257 121.523 176.932C121.256 176.741 120.969 176.55 120.701 176.359L120.434 176.149C120.243 175.977 120.051 175.824 119.86 175.652C119.21 175.231 118.579 174.83 117.929 174.41C117.585 173.951 117.26 173.512 116.916 173.053C117.011 172.938 117.107 172.824 117.203 172.709C128.119 180.467 140.355 182.148 153.49 181.9C180.084 181.403 206.698 181.709 233.311 181.69C234.42 181.69 235.624 181.27 236.599 182.206C232.508 182.779 228.206 181.021 224.23 183.257Z" fill="#8058A4"/>
<path d="M240.673 70.1571C207.158 66.3356 173.547 69.259 139.975 68.5138C136.017 68.4183 133.034 67.8833 131.333 63.9088C130.014 60.8324 127.089 58.9408 125.138 56.3039C125.674 56.2848 126.209 56.2466 126.744 56.2275C129.899 58.5586 131.964 61.826 134.029 65.0362C135.061 66.6603 136.246 67.4629 138.177 67.4247C143.301 67.31 148.444 67.31 153.568 67.2527C175.727 67.2909 197.866 67.3292 220.025 67.3483C227.08 67.5393 234.211 66.9852 240.979 69.7176C240.884 69.8705 240.769 70.0234 240.673 70.1571Z" fill="#7A61AA"/>
<path d="M254.646 76.1001C255.774 76.1383 257.055 75.8326 257.839 76.9027C261.299 81.5841 265.429 85.7687 268.182 90.966C268.469 91.5011 268.163 92.3419 268.124 93.0297C264.607 87.8897 261.242 82.5968 256.328 78.5842C255.774 77.7434 255.219 76.9217 254.646 76.1001Z" fill="#94A8D6"/>
<path d="M126.738 56.2281C126.202 56.2472 125.667 56.2664 125.132 56.3046C121.977 53.897 118.344 52.1008 115.706 49.0053C117.388 48.1837 119.033 48.1073 120.639 49.1964C121.595 52.4448 124.979 53.6295 126.738 56.2281Z" fill="#8058A4"/>
<path d="M224.227 183.257C228.185 181.021 232.487 182.779 236.597 182.206C237.496 182.703 238.758 182.798 238.892 184.193C234.035 183.276 229.045 184.767 224.227 183.257Z" fill="#8452A1"/>
<path d="M260.361 24.3179C257.302 24.337 255.735 21.2224 252.886 20.802C251.987 18.1843 248.375 18.5091 247.515 15.8531L247.534 15.834C252.256 17.9932 256.71 20.5346 260.361 24.3179Z" fill="#7A61AA"/>
<path d="M271.989 147.334C271.989 152.78 271.988 158.207 271.988 163.652C270.325 158.207 270.383 152.761 271.989 147.334Z" fill="#86B8E2"/>
<path d="M129.649 237.409C134.964 238.097 139.515 240.562 143.912 243.428C138.769 242.358 134.047 240.256 129.649 237.409Z" fill="#8058A4"/>
<path d="M278.528 40.6928C274.686 37.9794 271.187 34.9222 268.529 30.986C272.735 33.3171 276.1 36.5464 278.528 40.6928Z" fill="#7A61AA"/>
<path d="M267.033 29.5336C264.241 28.7311 261.737 27.5655 260.628 24.5846C263.324 25.5209 265.484 27.1451 267.033 29.5336Z" fill="#7A61AA"/>
<path d="M70.4336 51.986C72.4029 53.8013 75.0028 55.1388 74.9263 58.3872C73.2056 56.4 71.3131 54.5465 70.4336 51.986Z" fill="#71AAD8"/>
<path d="M111.6 167.722C111.16 167.646 110.72 167.569 110.281 167.474C110.262 166.881 110.109 166.365 109.44 166.194C109.21 166.002 109 165.811 108.77 165.639C108.445 165.162 108.12 164.665 107.795 164.187C107.661 163.557 107.528 162.945 107.394 162.315C109.287 163.729 111.007 165.295 111.6 167.722Z" fill="#8058A4"/>
<path d="M287.854 51.9666C286.783 51.7755 286.152 51.0494 285.636 50.1705C285.101 49.0813 284.546 47.9922 284.011 46.903C286.076 47.9922 287.051 49.9221 287.854 51.9666Z" fill="#7A61AA"/>
<path d="M64.5484 154.576C66.4794 156.525 66.4985 158.952 66.3073 161.436C65.3513 159.239 64.0895 157.137 64.5484 154.576Z" fill="#5E85BF"/>
<path d="M251.202 75.1255C249.003 74.2847 246.766 73.4822 245.027 71.8007C245.122 71.667 245.237 71.5333 245.333 71.4186C247.493 72.3358 249.749 73.0619 251.489 74.7434C251.393 74.8771 251.298 74.9917 251.202 75.1255Z" fill="#7A61AA"/>
<path d="M254.646 76.1001C255.219 76.9217 255.772 77.7428 256.346 78.5645C254.185 78.0677 252.636 76.6923 251.202 75.1255C251.298 74.9917 251.393 74.858 251.489 74.7434C252.502 75.1829 253.535 75.6027 254.568 76.0422L254.646 76.1001Z" fill="#7A61AA"/>
<path d="M144.063 243.524C145.191 243.505 146.3 243.485 147.428 243.466C148.021 244.02 148.613 244.594 149.225 245.148L149.129 245.262C147.371 244.842 145.459 244.919 144.063 243.524Z" fill="#8058A4"/>
<path d="M63.1158 148.423C65.4483 150.047 64.4721 152.436 64.5486 154.576C63.5926 152.627 62.829 150.64 63.1158 148.423Z" fill="#5E85BF"/>
<path d="M66.3254 161.455C68.4094 162.678 68.1034 164.685 68.0461 166.614C66.9754 165.048 66.1916 163.404 66.3254 161.455Z" fill="#5E85BF"/>
<path d="M245.032 71.8201C243.407 71.7246 241.782 71.6093 240.673 70.1571C240.769 70.0234 240.883 69.8711 240.979 69.7373C242.432 70.3106 243.885 70.8647 245.338 71.4188C245.242 71.5526 245.127 71.6863 245.032 71.8201Z" fill="#7A61AA"/>
<path d="M272.652 167.379C272.805 166.825 273.225 166.079 273.512 167.073C273.875 168.372 273.703 169.825 273.761 171.219C272.996 170.035 272.671 168.755 272.652 167.379Z" fill="#86B8E2"/>
<path d="M114.678 171.907C114.583 171.448 114.487 171.009 114.392 170.55C115.73 170.76 116.706 171.429 117.203 172.709C117.107 172.824 117.011 172.938 116.916 173.053C116.457 172.919 115.998 172.786 115.539 172.671L115.481 172.652C115.233 172.404 114.946 172.155 114.678 171.907Z" fill="#8058A4"/>
<path d="M75.2949 58.8072C76.8244 59.0747 76.6524 60.3167 76.7862 61.3868C75.6008 60.9282 75.4861 59.8581 75.2949 58.8072Z" fill="#71AAD8"/>
<path d="M240.748 187.384C239.008 187.155 238.932 185.913 239.066 184.575C240.423 185.034 240.863 186.046 240.748 187.384Z" fill="#8452A1"/>
<path d="M220.157 245.912C221.247 244.899 222.604 245.32 223.847 245.224C222.777 246.351 221.457 246.065 220.157 245.912Z" fill="#8058A4"/>
<path d="M309.307 101.246C307.261 100.539 308.198 98.9526 308.255 97.6341C309.001 98.7233 309.288 99.9462 309.307 101.246Z" fill="#5E85BF"/>
<path d="M269.351 95.9529C270.861 95.7045 269.943 96.6981 269.982 97.1949C269.79 96.7745 269.561 96.3542 269.351 95.9529Z" fill="#94A8D6"/>
<path d="M283.224 45.8523C282.88 45.4893 282.536 45.1262 282.211 44.7823C282.899 44.8205 283.377 45.0307 283.224 45.8523Z" fill="#7A61AA"/>
<path d="M107.026 161.646C106.242 161.398 105.841 160.882 105.936 160.041C106.739 160.289 107.236 160.71 107.026 161.646Z" fill="#8058A4"/>
<path d="M126.647 235.804C127.201 236.014 127.756 236.205 128.31 236.415C127.756 236.205 127.201 235.995 126.647 235.804Z" fill="#7A61AA"/>
<path d="M96.3633 212.473C96.6692 212.74 96.9751 212.989 97.281 213.256C96.9751 213.008 96.6692 212.74 96.3633 212.473Z" fill="#6E76B8"/>
<path d="M114.085 170.282L113.703 170.187L113.607 169.805C114.047 169.671 114.2 169.824 114.085 170.282Z" fill="#8058A4"/>
<path d="M113.266 169.423C113.074 169.232 112.902 169.06 112.711 168.869C113.189 168.773 113.361 168.964 113.266 169.423Z" fill="#8058A4"/>
<path d="M112.36 168.525C112.207 168.353 112.035 168.181 111.882 168.009C112.341 167.914 112.494 168.086 112.36 168.525Z" fill="#8058A4"/>
<path d="M280.13 42.3365C279.939 42.241 279.805 42.088 279.709 41.8779L280.053 41.9734L280.13 42.3365Z" fill="#7A61AA"/>
<path d="M281.682 43.9983L281.472 43.7308L281.72 43.7499L281.682 43.9983Z" fill="#7A61AA"/>
<path d="M280.877 43.1964L280.591 42.9098L280.858 42.9289L280.877 43.1964Z" fill="#7A61AA"/>
<path d="M279.309 41.4953C279.099 41.3807 278.946 41.2278 278.85 41.0176C279.175 41.0176 279.328 41.1705 279.309 41.4953Z" fill="#7A61AA"/>
<path d="M267.917 30.2412L267.745 30.1266L267.917 30.0502V30.2412Z" fill="#7A61AA"/>
<path d="M293.707 105.259C295.122 105.775 295.944 107.513 297.76 107.189C297.99 109.348 297.722 111.43 296.996 113.475C296.728 114.239 296.824 115.367 295.657 115.271C294.931 115.214 294.453 114.392 294.491 113.685C294.701 110.8 293.172 108.125 293.707 105.259Z" fill="#71AAD8"/>
<path d="M291.146 94.0234C293.039 96.6603 294.358 99.4501 293.555 102.813C291.873 100.119 290.305 97.4055 291.146 94.0234Z" fill="#71AAD8"/>
<path d="M298.042 102.068C297.889 100.386 297.048 98.4944 299.361 97.539C299.419 99.1823 300.241 101.074 298.042 102.068Z" fill="#71AAD8"/>
<path d="M297.812 107.093C297.852 105.966 297.909 104.82 297.947 103.692C298.846 104.858 298.903 105.985 297.812 107.093Z" fill="#71AAD8"/>
<path d="M149.209 245.148C148.616 244.594 148.023 244.039 147.412 243.466C147.144 242.969 146.991 242.358 146.609 242.033C142.326 238.46 142.345 238.135 146.934 235.422C148.31 234.6 149.687 233.587 149.878 231.925C150.165 229.498 151.541 227.645 152.86 225.811C157.028 220.021 158.52 212.874 162.783 207.027C164.408 204.792 167.964 204.83 168.194 201.582C175.65 200.569 183.145 203.149 190.601 201.372C196.031 202.938 201.594 201.639 207.081 202.136C206.928 203.607 205.666 203.779 204.634 204.199C202.99 204.868 201.403 205.843 200.696 207.39C196.356 216.849 189.874 225.18 186.204 234.963C184.827 238.651 182.246 241.594 180.124 244.785C178.766 246.81 177.963 248.167 180.659 249.294C180.238 250.498 179.34 250.555 178.785 250.345C173.298 248.262 167.372 248.988 161.693 247.594C157.621 246.581 153.549 244.918 149.209 245.148Z" fill="#7A61AA"/>
<path d="M252.908 201.276C252.888 200.97 252.85 200.664 252.831 200.359C253.443 200.473 254.303 200.492 254.074 201.352C253.883 202.04 253.29 201.677 252.908 201.276Z" fill="#8058A4"/>
<path d="M126.738 56.2281C124.979 53.6295 121.614 52.4443 120.62 49.1959C123.22 49.1959 125.82 49.1959 128.421 49.1768C140.829 49.9793 153.179 48.0303 165.568 48.4125C167.041 48.4889 168.513 48.5653 169.985 48.6418C169.277 50.7054 167.499 50.1513 166.008 50.2086C157.94 50.5144 151.287 59.6288 153.581 67.272C148.457 67.3293 143.314 67.3293 138.19 67.4439C136.259 67.4822 135.074 66.6796 134.041 65.0555C131.958 61.8262 129.892 58.5593 126.738 56.2281Z" fill="#9577B6"/>
<path d="M247.511 15.8528C248.372 18.5088 251.985 18.184 252.884 20.8018C249.5 23.9163 249.404 28.6933 246.995 32.3811C244.28 36.5276 243.076 41.6294 239.309 45.2026C238.411 46.0625 238.124 47.1325 238.162 48.3363C237.302 48.3936 236.441 48.47 235.581 48.5274C223.766 48.4891 211.95 48.4509 200.135 48.4127C204.934 34.5213 212.122 21.7572 219.043 8.87844C220.535 6.08868 222.064 6.20332 224.932 6.98674C232.809 9.14594 239.634 13.8083 247.511 15.8528Z" fill="#756CB1"/>
<path d="M200.135 48.4127C211.95 48.4509 223.766 48.4891 235.581 48.5274C235.103 50.4955 233.44 50.3425 232.121 50.1323C227.915 49.4253 225.411 51.1451 223.938 55.0431C223.346 56.6099 222.046 57.8901 221.109 59.3232C219.484 61.8264 218.566 64.4441 220.038 67.3676C197.879 67.3294 175.74 67.3102 153.581 67.272C151.306 59.6288 157.959 50.5145 166.028 50.2088C167.519 50.1514 169.297 50.7247 170.004 48.6419C180.042 48.5464 190.078 48.47 200.135 48.4127Z" fill="#978FC5"/>
<path d="M152.338 311.395C155.053 314.012 155.359 317.337 156.104 320.222C156.754 322.687 153.982 321.751 152.682 321.789C151.401 321.827 149.049 322.496 149.757 319.687C150.464 316.974 151.42 314.337 152.338 311.395Z" fill="#D3D3DA"/>
<path d="M123.302 177.907C133.798 183.066 145.02 183.83 156.453 183.372C158.021 183.315 159.589 183.544 161.176 183.62C161.233 185.302 161.769 187.155 160.449 188.512C156.492 192.62 155.383 198.945 149.991 201.926C147.984 202.002 145.996 202.078 143.988 202.155C141.713 200.149 139.361 202.117 137.048 202.059C131.083 201.907 125.099 201.945 119.134 201.906C118.847 200.951 118.273 200.359 117.222 200.34C116.132 200.282 115.061 200.225 113.972 200.168C113.838 199.384 113.704 198.601 113.57 197.837C117.298 197.301 119.994 195.62 120.682 191.607C120.797 190.919 121.026 190.212 121.332 189.582C123.875 184.174 124.2 182.397 123.302 177.907Z" fill="#94A8D6"/>
<path d="M107.64 195.161C108.654 195.199 109.265 195.715 109.476 196.709C108.367 196.804 107.831 196.193 107.64 195.161Z" fill="#94A8D6"/>
<path d="M149.97 201.926C155.362 198.945 156.471 192.62 160.428 188.512C161.748 187.156 161.193 185.302 161.155 183.621C174.691 182.933 188.208 183.238 201.744 183.582C198.551 189.831 196.563 196.843 190.598 201.371C183.142 203.148 175.647 200.569 168.191 201.601C162.13 202.308 156.05 202.155 149.97 201.926Z" fill="#978FC5"/>
<path d="M220.022 67.3481C218.569 64.4246 219.468 61.8068 221.093 59.3037C222.03 57.8706 223.33 56.5904 223.922 55.0235C225.395 51.1255 227.899 49.4058 232.105 50.1128C233.424 50.3421 235.088 50.4758 235.566 48.5077C236.426 48.4504 237.286 48.3739 238.147 48.3166C247.763 47.9536 256.635 50.4567 264.894 55.3101C265.601 55.7305 266.156 56.4184 266.768 56.9725C264.569 57.3547 263.116 58.3292 263.097 60.8705C263.078 62.3609 262.16 63.5265 260.86 64.3291C259.024 65.4373 257.705 66.5838 259.139 69.0678C260.114 70.7493 258.241 71.2461 257.17 71.6856C255.162 72.5264 254.302 73.9021 254.551 76.0231C253.518 75.5836 252.505 75.1632 251.473 74.7238C249.733 73.0423 247.458 72.3162 245.316 71.399C243.863 70.8258 242.41 70.2716 240.957 69.7175C234.208 67.0042 227.077 67.5392 220.022 67.3481Z" fill="#94A8D6"/>
<path d="M280.434 69.374C281.543 69.3549 282.116 69.8135 281.925 70.9982C281.065 70.788 280.587 70.2339 280.434 69.374Z" fill="#71AAD8"/>
<path d="M271.031 101.131C272.618 100.959 271.643 101.914 271.605 102.449C271.414 102.01 271.222 101.57 271.031 101.131Z" fill="#94A8D6"/>
<path d="M115.534 172.671C115.993 172.805 116.452 172.938 116.911 173.053C117.255 173.512 117.58 173.951 117.924 174.41C116.72 174.41 115.917 173.837 115.534 172.671Z" fill="#94A8D6"/>
<path d="M109.44 166.194C110.109 166.365 110.242 166.881 110.281 167.474C108.809 167.837 109.65 166.671 109.44 166.194Z" fill="#94A8D6"/>
<path d="M107.793 164.187C108.118 164.665 108.443 165.162 108.768 165.639C108.004 165.448 107.755 164.913 107.793 164.187Z" fill="#94A8D6"/>
<path d="M121.523 176.932C121.256 176.741 120.969 176.55 120.701 176.359C120.988 176.55 121.256 176.76 121.523 176.932Z" fill="#94A8D6"/>
<path d="M120.434 176.149C120.243 175.977 120.051 175.824 119.86 175.652C119.994 175.9 120.185 176.072 120.434 176.149Z" fill="#94A8D6"/>
<path d="M114.675 171.907C114.943 172.155 115.211 172.404 115.497 172.652C115.23 172.404 114.943 172.155 114.675 171.907Z" fill="#94A8D6"/>
<path d="M117.198 200.34C118.25 200.378 118.824 200.97 119.11 201.906C117.944 202.04 117.332 201.486 117.198 200.34Z" fill="#5E85BF"/>
</g>
<defs>
<clipPath id="clip0_447_47">
<rect width="374" height="346" fill="white"/>
</clipPath>
</defs>
</svg>
